#!OML:ASF H:\Dans Jumps\Project 1\Capture day 1\Session 1\subject.ASF
:FULLY-SPECIFIED
:DEGREES
431
root 0.641371 16.3801 0.956008 3.3929 -0.167447 -0.69786
lowerback 9.8552 0.0742852 -0.556232
upperback 4.52524 0.0857654 2.16758
thorax -0.829692 0.0149175 2.54597
lowerneck -13.1908 -0.0358423 -1.77576
upperneck 28.4969 -0.0661674 1.57361
head 11.4406 -0.024234 0.876315
rclavicle 5.56597e-015 2.78299e-015
rhumerus -20.055 -20.3605 -79.3177
rradius 24.148
rwrist 34.3943
rhand -26.9013 -31.2146
rfingers 7.12502
rthumb -0.324723 -61.1941
lclavicle 5.56597e-015 2.78299e-015
lhumerus -18.4403 2.15409 91.0969
lradius 20.0775
lwrist 27.4734
lhand -27.5719 -6.93882
lfingers 7.12502
lthumb -0.972466 23.0387
rfemur -35.3693 -3.03239 19.0042
rtibia 53.1656
rfoot -18.3747 -5.17975
rtoes 4.51541
lfemur -34.3598 8.1953 -19.7884
ltibia 51.2587
lfoot -15.9038 8.33043
ltoes -10.4868
432
root 0.644093 16.4755 0.985398 3.65572 -0.166086 -0.687179
lowerback 9.57927 0.0661915 -0.589316
upperback 4.48504 0.0708497 2.1413
thorax -0.719673 0.00677473 2.53791
lowerneck -13.087 -0.0463069 -1.82842
upperneck 28.5948 -0.116607 1.72877
head 11.4582 -0.0341493 0.936242
rclavicle 3.97569e-016 1.19271e-014
rhumerus -19.6591 -19.7431 -79.817
rradius 24.4724
rwrist 33.4356
rhand -26.8685 -31.0414
rfingers 7.12502
rthumb -0.293035 -61.0209
lclavicle 3.97569e-016 1.19271e-014
lhumerus -17.9568 2.14636 91.2721
lradius 20.632
lwrist 30.0446
lhand -27.3453 -7.42144
lfingers 7.12502
lthumb -0.753573 22.557
rfemur -34.6618 -2.82997 18.9506
rtibia 51.6259
rfoot -17.911 -5.11626
rtoes 5.22668
lfemur -33.6804 8.23844 -19.8187
ltibia 49.7163
lfoot -15.5154 7.92177
ltoes -9.98248
433
root 0.646479 16.5692 1.01484 3.95536 -0.146641 -0.681318
lowerback 9.25025 0.0442949 -0.616908
upperback 4.41435 0.0385181 2.11128
thorax -0.611119 -0.00971512 2.52435
lowerneck -12.9741 -0.0579365 -1.87077
upperneck 28.7245 -0.167701 1.8686
head 11.4864 -0.045346 0.989035
rclavicle 1.98785e-016 -1.59028e-014
rhumerus -19.328 -18.939 -80.3366
rradius 24.8548
rwrist 32.4589
rhand -26.7153 -30.7957
rfingers 7.12502
rthumb -0.145095 -60.7754
lclavicle 1.98785e-016 -1.59028e-014
lhumerus -17.5722 2.00966 91.4174
lradius 21.1546
lwrist 31.9638
lhand -27.0733 -7.8652
lfingers 7.12502
lthumb -0.490887 22.114
rfemur -34.0006 -2.71659 18.9107
rtibia 50.0936
rfoot -17.4584 -4.97547
rtoes 5.93054
lfemur -33.0506 8.30175 -19.8519
ltibia 48.1773
lfoot -15.1288 7.49241
ltoes -9.50529
434
root 0.648503 16.6602 1.04491 4.29438 -0.110088 -0.685562
lowerback 8.86354 0.00963699 -0.634112
upperback 4.31635 -0.00951134 2.08177
thorax -0.498133 -0.0337405 2.50648
lowerneck -12.8436 -0.0678699 -1.88485
upperneck 28.8543 -0.211493 1.96533
head 11.5111 -0.0556534 1.02208
rclavicle 9.93923e-016 -2.22639e-014
rhumerus -19.0596 -17.9857 -80.8641
rradius 25.307
rwrist 31.4293
rhand -26.471 -30.5159
rfingers 7.12502
rthumb 0.0907937 -60.4956
lclavicle 9.93923e-016 -2.22639e-014
lhumerus -17.2932 1.65578 91.5576
lradius 21.6603
lwrist 33.1301
lhand -26.9001 -8.23434
lfingers 7.12502
lthumb -0.323634 21.7452
rfemur -33.3906 -2.695 18.8935
rtibia 48.576
rfoot -17.0213 -4.76773
rtoes 6.62514
lfemur -32.4752 8.38395 -19.8822
ltibia 46.6492
lfoot -14.7487 7.05064
ltoes -9.08449
435
root 0.650036 16.7477 1.07634 4.66672 -0.0569764 -0.710826
lowerback 8.4165 -0.0372918 -0.633461
upperback 4.19878 -0.072203 2.06
thorax -0.371145 -0.0648912 2.48723
lowerneck -12.6936 -0.0768532 -1.86534
upperneck 28.9633 -0.245311 2.00332
head 11.5236 -0.0651575 1.02875
rclavicle -3.37934e-015 -9.54166e-015
rhumerus -18.8414 -16.9214 -81.3882
rradius 25.8237
rwrist 30.3271
rhand -26.176 -30.2197
rfingers 7.12502
rthumb 0.375713 -60.1991
lclavicle -3.37934e-015 -9.54166e-015
lhumerus -17.1108 1.05611 91.7067
lradius 22.1512
lwrist 33.5064
lhand -26.903 -8.52127
lfingers 7.12502
lthumb -0.326381 21.4582
rfemur -32.8263 -2.76038 18.9133
rtibia 47.0806
rfoot -16.6043 -4.51149
rtoes 7.27064
lfemur -31.9493 8.48062 -19.8948
ltibia 45.1434
lfoot -14.3821 6.60272
ltoes -8.71934
436
root 0.651204 16.8309 1.10925 5.06875 0.00253363 -0.758373
lowerback 7.91385 -0.0885204 -0.609033
upperback 4.06369 -0.138917 2.04395
thorax -0.231005 -0.0977585 2.45998
lowerneck -12.5364 -0.0880999 -1.84296
upperneck 29.0588 -0.275522 2.01625
head 11.5294 -0.0758228 1.02601
rclavicle 1.0138e-014 3.97569e-016
rhumerus -18.675 -15.7981 -81.8972
rradius 26.4077
rwrist 29.1614
rhand -25.8442 -29.9208
rfingers 7.12502
rthumb 0.696208 -59.8994
lclavicle 1.0138e-014 3.97569e-016
lhumerus -17.0208 0.209397 91.8634
lradius 22.6386
lwrist 33.1439
lhand -27.0879 -8.73648
lfingers 7.12502
lthumb -0.504969 21.2427
rfemur -32.3098 -2.89908 18.9721
rtibia 45.6178
rfoot -16.2076 -4.21903
rtoes 7.86613
lfemur -31.4744 8.59201 -19.8881
ltibia 43.6742
lfoot -14.0325 6.15847
ltoes -8.40436
437
root 0.652024 16.909 1.14355 5.48175 0.0619368 -0.826284
lowerback 7.38006 -0.140702 -0.567947
upperback 3.91794 -0.206045 2.03722
thorax -0.0841269 -0.13067 2.43217
lowerneck -12.3851 -0.101533 -1.82581
upperneck 29.1428 -0.300344 2.00622
head 11.5318 -0.0874098 1.01635
rclavicle -4.77083e-015 1.43125e-014
rhumerus -18.5443 -14.6587 -82.3802
rradius 27.0354
rwrist 27.965
rhand -25.4966 -29.6174
rfingers 7.12502
rthumb 1.03192 -59.5947
lclavicle -4.77083e-015 1.43125e-014
lhumerus -17.0073 -0.8105 92.0198
lradius 23.1297
lwrist 32.1484
lhand -27.4037 -8.82488
lfingers 7.12502
lthumb -0.810018 21.1533
rfemur -31.8258 -3.08894 19.0651
rtibia 44.1972
rfoot -15.8346 -3.90243
rtoes 8.42254
lfemur -31.0349 8.71318 -19.8605
ltibia 42.2537
lfoot -13.7018 5.72859
ltoes -8.13376
438
root 0.652595 16.9817 1.17868 5.88324 0.108416 -0.907338
lowerback 6.84319 -0.187566 -0.517124
upperback 3.76999 -0.266002 2.03647
thorax 0.0624266 -0.159904 2.40387
lowerneck -12.2475 -0.116864 -1.81887
upperneck 29.2175 -0.32105 1.98341
head 11.5333 -0.0997428 1.00425
rclavicle -1.78906e-015 -1.23246e-014
rhumerus -18.4418 -13.5458 -82.8312
rradius 27.6998
rwrist 26.7829
rhand -25.1419 -29.3018
rfingers 7.12502
rthumb 1.37451 -59.2771
lclavicle -1.78906e-015 -1.23246e-014
lhumerus -17.0462 -1.92921 92.1586
lradius 23.6236
lwrist 30.684
lhand -27.7404 -8.77169
lfingers 7.12502
lthumb -1.13515 21.205
rfemur -31.3565 -3.30553 19.1804
rtibia 42.8261
rfoot -15.4831 -3.57115
rtoes 8.91709
lfemur -30.6104 8.8449 -19.817
ltibia 40.8905
lfoot -13.3877 5.32539
ltoes -7.89521
439
root 0.652949 17.0486 1.21422 6.24597 0.131415 -0.987901
lowerback 6.33544 -0.22382 -0.472405
upperback 3.62705 -0.312686 2.03784
thorax 0.198033 -0.182572 2.37996
lowerneck -12.1182 -0.133477 -1.83624
upperneck 29.2816 -0.339356 1.96791
head 11.5323 -0.112683 0.999315
rclavicle -4.47266e-015 -1.19271e-015
rhumerus -18.3659 -12.4902 -83.2451
rradius 28.3916
rwrist 25.6546
rhand -24.7826 -28.9681
rfingers 7.12502
rthumb 1.72156 -58.9409
lclavicle -4.47266e-015 -1.19271e-015
lhumerus -17.1256 -3.07528 92.2692
lradius 24.1306
lwrist 28.9572
lhand -28.0179 -8.65268
lfingers 7.12502
lthumb -1.40324 21.3225
rfemur -30.8791 -3.52543 19.2982
rtibia 41.5125
rfoot -15.1557 -3.23134
rtoes 9.37983
lfemur -30.1723 8.98271 -19.768
ltibia 39.5874
lfoot -13.0877 4.96392
ltoes -7.68175
440
root 0.653034 17.1097 1.24972 6.5458 0.124615 -1.06109
lowerback 5.88813 -0.248706 -0.445967
upperback 3.49755 -0.345441 2.04056
thorax 0.313964 -0.198515 2.36696
lowerneck -12.0111 -0.14765 -1.8665
upperneck 29.3454 -0.351335 1.95485
head 11.5356 -0.123802 0.998436
rclavicle -8.94531e-016 -3.97569e-015
rhumerus -18.3052 -11.5087 -83.6219
rradius 29.0958
rwrist 24.6212
rhand -24.422 -28.6269
rfingers 7.12502
rthumb 2.0698 -58.5966
lclavicle -8.94531e-016 -3.97569e-015
lhumerus -17.2251 -4.22578 92.3464
lradius 24.655
lwrist 27.2237
lhand -28.1927 -8.47375
lfingers 7.12502
lthumb -1.57204 21.5002
rfemur -30.3726 -3.72887 19.4065
rtibia 40.2618
rfoot -14.8512 -2.89388
rtoes 9.80655
lfemur -29.695 9.12563 -19.7165
ltibia 38.3459
lfoot -12.7979 4.64723
ltoes -7.4827
441
root 0.65293 17.1653 1.28485 6.7711 0.0875968 -1.10683
lowerback 5.51376 -0.262778 -0.456942
upperback 3.38379 -0.365502 2.03824
thorax 0.405646 -0.208557 2.36941
lowerneck -11.9102 -0.157243 -1.90119
upperneck 29.4037 -0.355455 1.94154
head 11.5379 -0.131878 0.999241
rclavicle -5.46658e-015 -1.27222e-014
rhumerus -18.2615 -10.608 -83.9647
rradius 29.8069
rwrist 23.7005
rhand -24.0807 -28.291
rfingers 7.12502
rthumb 2.39943 -58.2572
lclavicle -5.46658e-015 -1.27222e-014
lhumerus -17.3414 -5.3597 92.3911
lradius 25.2087
lwrist 25.7017
lhand -28.2132 -8.34239
lfingers 7.12502
lthumb -1.59181 21.6314
rfemur -29.8296 -3.91237 19.4799
rtibia 39.0804
rfoot -14.5693 -2.55926
rtoes 10.207
lfemur -29.1656 9.2658 -19.683
ltibia 37.1653
lfoot -12.5155 4.3795
ltoes -7.28634
442
root 0.652494 17.2151 1.31909 6.91927 0.0222172 -1.13348
lowerback 5.22143 -0.267017 -0.497354
upperback 3.28512 -0.373349 2.03144
thorax 0.467167 -0.21278 2.38369
lowerneck -11.8237 -0.161601 -1.93354
upperneck 29.4675 -0.352189 1.92714
head 11.5451 -0.136479 1.00031
rclavicle 1.88845e-015 -1.59028e-014
rhumerus -18.2449 -9.73514 -84.2897
rradius 30.5596
rwrist 22.7989
rhand -23.7278 -28.1258
rfingers 7.12502
rthumb 2.74025 -58.0879
lclavicle 1.88845e-015 -1.59028e-014
lhumerus -17.4766 -6.47433 92.4061
lradius 25.8149
lwrist 24.5602
lhand -28.1053 -8.26704
lfingers 7.12502
lthumb -1.48758 21.7075
rfemur -29.2524 -4.0667 19.5267
rtibia 37.9718
rfoot -14.3041 -2.23682
rtoes 10.6031
lfemur -28.5859 9.40142 -19.6564
ltibia 36.0488
lfoot -12.2356 4.15178
ltoes -7.06706
443
root 0.651692 17.2596 1.35229 6.99621 -0.0608211 -1.14592
lowerback 5.0058 -0.2664 -0.560515
upperback 3.20235 -0.375213 2.02137
thorax 0.502414 -0.214229 2.40764
lowerneck -11.7536 -0.160698 -1.95838
upperneck 29.5366 -0.341439 1.90739
head 11.5576 -0.137523 0.999174
rclavicle 9.24349e-015 -8.34896e-015
rhumerus -18.2405 -8.90264 -84.6014
rradius 31.3087
rwrist 21.9029
rhand -23.4557 -28.0303
rfingers 7.12502
rthumb 3.00305 -57.9889
lclavicle 9.24349e-015 -8.34896e-015
lhumerus -17.622 -7.57484 92.3957
lradius 26.4745
lwrist 23.9062
lhand -27.9002 -8.22222
lfingers 7.12502
lthumb -1.28952 21.7536
rfemur -28.6501 -4.19619 19.5528
rtibia 36.9402
rfoot -14.0529 -1.93381
rtoes 10.9748
lfemur -27.9665 9.52371 -19.6313
ltibia 35.0014
lfoot -11.9563 3.95452
ltoes -6.79016
444
root 0.650562 17.2988 1.38437 7.01551 -0.154655 -1.15763
lowerback 4.84535 -0.262715 -0.627049
upperback 3.13713 -0.372853 2.00901
thorax 0.524903 -0.213612 2.43129
lowerneck -11.7014 -0.156172 -1.97914
upperneck 29.6098 -0.326624 1.88898
head 11.5752 -0.136097 0.998433
rclavicle -4.87022e-015 3.97569e-016
rhumerus -18.2415 -8.11824 -84.9017
rradius 32.0282
rwrist 21.0294
rhand -23.3051 -27.8659
rfingers 7.12502
rthumb 3.14847 -57.8224
lclavicle -4.87022e-015 3.97569e-016
lhumerus -17.7657 -8.66045 92.3598
lradius 27.1778
lwrist 23.7454
lhand -27.6366 -8.19936
lfingers 7.12502
lthumb -1.03493 21.7779
rfemur -28.0388 -4.30274 19.574
rtibia 35.9875
rfoot -13.8076 -1.65453
rtoes 11.3152
lfemur -27.3283 9.63033 -19.5948
ltibia 34.0315
lfoot -11.6757 3.7825
ltoes -6.45212
